<svg width="48" height="48" viewBox="0 0 48 48" fill="none" xmlns="http://www.w3.org/2000/svg">
<path fill-rule="evenodd" clip-rule="evenodd" d="M22.5738 38.9322C22.0552 38.9771 21.5303 39 21 39C11.0589 39 3 30.9411 3 21C3 11.0589 11.0589 3 21 3C30.9411 3 39 11.0589 39 21C39 23.607 38.4458 26.0845 37.4488 28.3212L39.2153 31.4571C40.9868 28.378 42 24.8073 42 21C42 9.40202 32.598 0 21 0C9.40202 0 0 9.40202 0 21C0 32.598 9.40202 42 21 42C21.0108 42 21.0216 42 21.0324 42C21.08 41.7022 21.1808 41.4048 21.3417 41.1194L22.5738 38.9322Z" fill="#1B344B"/>
<path fill-rule="evenodd" clip-rule="evenodd" d="M37.7916 22.8176L47.2717 39.6463C47.2718 39.6464 47.2717 39.6462 47.2717 39.6463C49.2979 43.2425 46.8551 47.9997 42.48 47.9997H23.5195C19.1444 47.9997 16.7015 43.2428 18.7276 39.6466C18.7277 39.6465 18.7276 39.6467 18.7276 39.6466L28.2079 22.8176C30.3248 19.0608 35.6748 19.0608 37.7916 22.8176ZM44.6581 41.119C45.6276 42.8395 44.4189 44.9997 42.48 44.9997H23.5195C21.5806 44.9997 20.372 42.8395 21.3414 41.119L30.8217 24.29C31.7911 22.5696 34.2084 22.5696 35.1778 24.29L44.6581 41.119Z" fill="#1B344B"/>
<path d="M31.7412 35.4684C31.7412 36.2786 32.3078 36.9415 33.0002 36.9415C33.6927 36.9415 34.2592 36.2786 34.2592 35.4684V30.2446C34.2592 29.4344 33.6927 28.7715 33.0002 28.7715C32.3078 28.7715 31.7412 29.4344 31.7412 30.2446V35.4684Z" fill="#1B344B"/>
<path d="M31.7412 39.8603C31.7412 40.5556 32.3049 41.1193 33.0002 41.1193V41.1193C33.6955 41.1193 34.2592 40.5556 34.2592 39.8603V39.7912C34.2592 39.0959 33.6955 38.5322 33.0002 38.5322V38.5322C32.3049 38.5322 31.7412 39.0959 31.7412 39.7912V39.8603Z" fill="#1B344B"/>
<path fill-rule="evenodd" clip-rule="evenodd" d="M22.5 10C23.3284 10 24 10.6716 24 11.5L24 22.5C24 23.3284 23.3284 24 22.5 24C21.6716 24 21 23.3284 21 22.5L21 11.5C21 10.6716 21.6716 10 22.5 10Z" fill="#1B344B"/>
<path fill-rule="evenodd" clip-rule="evenodd" d="M12 22.5C12 21.6716 12.6716 21 13.5 21L22.5 21C23.3284 21 24 21.6716 24 22.5C24 23.3284 23.3284 24 22.5 24L13.5 24C12.6716 24 12 23.3284 12 22.5Z" fill="#1B344B"/>
</svg>
